<svg width="28" height="29" viewBox="0 0 28 29" fill="none" xmlns="http://www.w3.org/2000/svg">
<g id="fe:search">
<path id="Vector" fill-rule="evenodd" clip-rule="evenodd" d="M19.0459 18.003L25.3226 24.5038C25.5432 24.7325 25.667 25.0425 25.6669 25.3658C25.6668 25.689 25.5427 25.999 25.322 26.2275C25.1012 26.456 24.8018 26.5843 24.4897 26.5842C24.1776 26.5841 23.8783 26.4555 23.6577 26.2269L17.3811 19.7261C15.5047 21.2313 13.1452 21.9396 10.7825 21.7069C8.41986 21.4743 6.23149 20.3182 4.66262 18.4738C3.09374 16.6293 2.26221 14.2352 2.33718 11.7783C2.41215 9.32144 3.388 6.98643 5.06619 5.2483C6.74439 3.51017 8.99888 2.49947 11.371 2.42182C13.7432 2.34417 16.0548 3.2054 17.8356 4.83031C19.6164 6.45521 20.7327 8.72174 20.9573 11.1688C21.1819 13.6159 20.498 16.0596 19.0447 18.003H19.0459ZM11.6667 19.3334C13.5232 19.3334 15.3037 18.5695 16.6165 17.2099C17.9292 15.8502 18.6667 14.0062 18.6667 12.0834C18.6667 10.1605 17.9292 8.31647 16.6165 6.95683C15.3037 5.59719 13.5232 4.83335 11.6667 4.83335C9.8102 4.83335 8.02973 5.59719 6.71697 6.95683C5.40422 8.31647 4.66672 10.1605 4.66672 12.0834C4.66672 14.0062 5.40422 15.8502 6.71697 17.2099C8.02973 18.5695 9.8102 19.3334 11.6667 19.3334Z" fill="#F77F00"/>
</g>
</svg>
