<svg width="25" height="26" viewBox="0 0 25 26" fill="none" xmlns="http://www.w3.org/2000/svg">
<g id="fe:search">
<path id="Vector" fill-rule="evenodd" clip-rule="evenodd" d="M17.0057 16.0743L22.6098 21.8786C22.8068 22.0827 22.9174 22.3596 22.9173 22.6482C22.9172 22.9368 22.8064 23.2136 22.6093 23.4176C22.4122 23.6216 22.1449 23.7362 21.8662 23.7361C21.5876 23.736 21.3203 23.6212 21.1234 23.417L15.5192 17.6127C13.8439 18.9567 11.7372 19.5891 9.62766 19.3814C7.51813 19.1737 5.56423 18.1414 4.16345 16.4946C2.76267 14.8478 2.02023 12.7101 2.08717 10.5165C2.15411 8.32289 3.0254 6.23806 4.52379 4.68615C6.02218 3.13425 8.03511 2.23184 10.1531 2.16251C12.2711 2.09319 14.335 2.86214 15.925 4.31295C17.5151 5.76376 18.5117 7.78744 18.7123 9.97231C18.9128 12.1572 18.3022 14.3391 17.0046 16.0743H17.0057ZM10.4171 17.2621C12.0747 17.2621 13.6644 16.5801 14.8365 15.3661C16.0086 14.1522 16.6671 12.5057 16.6671 10.7889C16.6671 9.07208 16.0086 7.42559 14.8365 6.21163C13.6644 4.99766 12.0747 4.31567 10.4171 4.31567C8.75951 4.31567 7.1698 4.99766 5.9977 6.21163C4.8256 7.42559 4.16712 9.07208 4.16712 10.7889C4.16712 12.5057 4.8256 14.1522 5.9977 15.3661C7.1698 16.5801 8.75951 17.2621 10.4171 17.2621Z" fill="white"/>
</g>
</svg>
